<?xml version="1.0" encoding="utf-8"?>
<!-- Generator: Adobe Illustrator 15.0.0, SVG Export Plug-In . SVG Version: 6.00 Build 0)  -->
<!DOCTYPE svg PUBLIC "-//W3C//DTD SVG 1.1//EN" "http://www.w3.org/Graphics/SVG/1.1/DTD/svg11.dtd">
<svg version="1.1" id="Layer_1" xmlns:svg="http://www.w3.org/2000/svg"
	 xmlns="http://www.w3.org/2000/svg" xmlns:xlink="http://www.w3.org/1999/xlink" x="0px" y="0px" width="32px" height="32px"
	 viewBox="0 0 32 32" enable-background="new 0 0 32 32" xml:space="preserve">
<g>
	<title>Layer 1</title>
	<g id="svg_8">
		<g id="svg_1">
			<g id="svg_2">
				<path id="svg_3" fill="#FFFFFF" stroke="#231F20" stroke-miterlimit="10" d="M21.354,19.166
					c-0.777-0.374-1.986-0.23-2.648,0.287c0,0-1.266,1.008-2.704,1.008c-1.554,0-2.762-0.979-2.762-0.979
					c-0.662-0.547-1.842-0.69-2.619-0.316c0,0-1.294,0.374-1.784,0.719c-0.489,0.346-0.892,1.267-0.892,2.102
					c0,0.834,0.69,1.524,1.554,1.524h12.977c0.863,0,1.555-0.69,1.555-1.524c0-0.835-0.403-1.784-0.922-2.102
					C22.59,19.568,21.354,19.166,21.354,19.166L21.354,19.166L21.354,19.166z"/>
				<path id="svg_4" fill="none" stroke="#231F20" stroke-miterlimit="10" d="M21.354,19.166c-0.777-0.374-1.986-0.23-2.648,0.287
					c0,0-1.266,1.008-2.704,1.008c-1.554,0-2.762-0.979-2.762-0.979c-0.662-0.547-1.842-0.69-2.619-0.316
					c0,0-1.294,0.374-1.784,0.719c-0.489,0.346-0.892,1.267-0.892,2.102c0,0.834,0.69,1.524,1.554,1.524h12.977
					c0.863,0,1.555-0.69,1.555-1.524c0-0.835-0.403-1.784-0.922-2.102C22.59,19.568,21.354,19.166,21.354,19.166L21.354,19.166
					L21.354,19.166z"/>
			</g>
			<path id="svg_5" fill="#FFFFFF" stroke="#231F20" stroke-miterlimit="10" d="M20.605,12.289c0-3.165-2.072-4.92-4.604-4.92
				s-4.604,1.755-4.604,4.92c0,2.187,0.979,4.46,2.389,5.668c0.719-0.144,1.438-0.258,2.129-0.258c0.748,0,1.496,0.114,2.245,0.258
				C19.627,16.777,20.605,14.476,20.605,12.289L20.605,12.289z"/>
			<path id="svg_6" fill="#FFFFFF" stroke="#231F20" stroke-miterlimit="10" d="M13.786,17.957c0.662,0.576,1.41,0.893,2.215,0.893
				c0.776,0,1.524-0.316,2.187-0.893c-0.748-0.172-1.525-0.258-2.244-0.258C15.224,17.728,14.505,17.813,13.786,17.957z"/>
		</g>
		
			<circle id="svg_7" fill="none" stroke="#231F20" stroke-width="1.359" stroke-miterlimit="10" cx="16.001" cy="16.001" r="15.25"/>
	</g>
</g>
</svg>
